PathFileType	3	(X/Y/Z)	D:\minhoCalibration\240510\subject2_KPNP\preferred\preferred02.trc
DataRate	CameraRate	NumFrames	NumMarkers	Units	OrigDataRate	OrigDataStartFrame	OrigNumFrames
200.0	200.0	15	10	mm	200.0	339	197	
Frame#	Time	Left_Ankle_Outer1			Left_Ankle_Inner1			Left_Knee_Outer1			Left_Knee_Inner1			Left_Wrist1			Right_Wrist1			Right_Knee_Inner1			Right_Knee_Outer1			Right_Ankle_Inner1			Right_Ankle_Outer1			
		X1	Y1	Z1	X2	Y2	Z2	X3	Y3	Z3	X4	Y4	Z4	X5	Y5	Z5	X6	Y6	Z6	X7	Y7	Z7	X8	Y8	Z8	X9	Y9	Z9	X10	Y10	Z10	
339	1.685	-420.88028	88.273193	-846.11792	-441.53455	92.995132	-794.06262	-213.12839	498.10339	-814.01611	-269.02338	481.34375	-736.22656	-257.24966	967.22626	-875.87787	-567.93085	1044.2129	-751.15387	-746.98676	608.97076	-547.84192	-812.4906	682.66931	-582.62146	-682.09967	474.13934	-938.77032	-760.71368	524.70227	-971.19501
340	1.69	-421.40945	88.568001	-846.25372	-441.43408	93.483223	-793.77362	-215.62733	499.23587	-818.37915	-269.39093	482.5463	-739.38214	-256.06329	968.64423	-879.01062	-559.98016	1050.1123	-742.47272	-737.42236	618.84863	-527.54395	-803.45837	693.76978	-559.72601	-679.29773	493.11917	-923.00708	-758.33398	543.84296	-952.58643
341	1.695	-421.99359	88.942581	-846.19843	-441.37613	93.938782	-793.58331	-218.25163	500.47272	-822.76569	-269.96671	483.7261	-742.40149	-255.70976	969.80463	-882.10455	-552.24597	1056.2489	-732.09113	-727.01813	629.24512	-507.46399	-793.61707	704.26056	-538.28455	-676.20782	511.95596	-907.12524	-755.65466	563.77448	-934.10828
342	1.7	-422.59628	89.276741	-846.01349	-441.3277	94.400993	-793.16925	-221.07986	501.79535	-826.9118	-270.60501	485.0556	-745.31366	-254.01324	971.7511	-886.02332	-544.19183	1062.274	-723.42139	-716.30481	639.44794	-487.10522	-782.89221	715.96106	-515.48065	-673.68842	530.83466	-890.27899	-753.43243	583.28729	-914.87988
343	1.705	-423.37167	89.741104	-845.67584	-441.08179	94.83812	-793.05444	-223.9991	502.97827	-830.99518	-271.31561	486.28796	-747.89764	-254.43036	972.24805	-889.8465	-535.93091	1068.4	-715.04852	-704.41882	650.28009	-466.8782	-771.20129	728.20844	-492.91022	-671.53302	549.56219	-873.05469	-751.98248	603.28546	-894.30737
344	1.71	-424.07425	90.130325	-845.15619	-440.91934	95.449066	-792.21692	-226.63528	504.35019	-834.95227	-272.29385	487.61185	-750.71997	-254.50328	973.10107	-893.97461	-527.58978	1074.4552	-707.25525	-691.9552	661.22601	-447.14798	-758.40405	740.29321	-471.20984	-670.2337	568.44275	-855.35614	-750.17914	623.15076	-874.37964
345	1.715	-424.99203	90.586823	-844.55377	-440.95728	95.947044	-790.93024	-229.15666	505.72736	-838.73602	-272.74298	488.80701	-752.96948	-255.64162	973.48395	-897.91602	-519.0705	1080.4656	-699.84918	-678.91919	673.60828	-426.42261	-745.00623	753.58502	-447.9873	-669.24554	587.27173	-837.29578	-749.02545	642.96869	-853.18219
346	1.72	-425.95123	91.047997	-843.75641	-440.79297	96.487045	-789.83081	-231.55765	506.96027	-842.41705	-273.34164	489.95352	-755.43506	-257.57382	973.41333	-901.81104	-510.59122	1086.4841	-692.97046	-664.66064	685.8869	-406.36722	-730.04169	766.7049	-426.31805	-668.79108	605.84088	-818.50659	-748.22528	662.69556	-831.36279
347	1.725	-426.9765	91.418953	-842.78308	-440.60428	96.991699	-788.4541	-233.9043	508.06879	-846.03424	-273.88995	491.10837	-758.05469	-260.73941	972.84558	-905.59045	-501.81641	1092.2312	-686.42493	-649.25916	698.69696	-386.48538	-713.57294	781.34259	-404.25131	-668.37689	624.10175	-799.6319	-748.53644	682.31519	-808.03046
348	1.73	-427.91507	91.383415	-841.13519	-439.92776	97.441139	-787.59308	-236.15489	509.11505	-849.75494	-273.28046	492.3067	-760.15387	-263.71512	972.33447	-909.42969	-493.07159	1097.8844	-680.31665	-632.91278	711.82538	-366.74136	-695.34308	795.92566	-383.3688	-669.01685	642.28284	-780.02991	-748.3421	701.2879	-784.95209
349	1.735	-429.03754	92.06205	-840.36029	-439.79843	98.805321	-784.40289	-238.57796	509.92148	-853.4386	-272.80899	493.17102	-762.60168	-267.44971	971.60901	-913.02606	-484.24805	1103.2623	-674.80328	-614.37305	725.1123	-347.94	-676.61896	810.88293	-361.23132	-670.63379	659.79089	-759.44611	-749.87622	720.8017	-758.33185
350	1.74	-429.88483	91.999725	-838.63348	-439.61035	99.334694	-782.60449	-241.07732	510.68939	-857.20874	-271.75217	493.80399	-765.11212	-271.89032	970.58246	-916.39758	-475.45673	1108.4065	-669.76776	-595.22449	739.13171	-329.48978	-654.74164	826.53937	-340.8624	-672.86542	676.61237	-738.3894	-749.70831	740.05328	-734.06537
351	1.745	-431.0296	92.531738	-837.61444	-439.54385	99.849152	-780.79059	-243.70944	511.24503	-860.95935	-270.43585	493.82153	-767.60022	-276.90112	969.29071	-919.50153	-466.78348	1113.3634	-665.23877	-575.2088	753.28149	-312.03558	-632.94507	842.69916	-319.96936	-675.6402	693.00177	-715.81067	-750.16119	758.03101	-707.67322
352	1.75	-432.0668	92.812279	-836.22473	-439.41565	99.6194	-780.34918	-246.0804	512.08508	-864.7923	-268.27628	494.05099	-770.31549	-282.34445	967.85974	-922.25873	-458.28433	1118.0815	-661.14819	-553.8952	767.53009	-295.82156	-608.5838	858.3678	-302.38956	-679.11212	708.81061	-692.62323	-750.00824	776.21497	-681.84985
353	1.755	-433.22275	93.110046	-834.54852	-439.1868	100.2281	-778.62604	-249.0123	512.05988	-868.31372	-266.01056	493.93246	-773.05334	-288.19833	966.19769	-924.65143	-450.1795	1122.5173	-657.57574	-531.39716	781.92181	-280.9343	-583.61688	875.36243	-283.8103	-683.58173	723.63275	-667.30487	-750.66168	794.06995	-653.98901
